# xmcd
#
# Track frame offsets: 
#        150
#        16748
#        40473
#        64584
#        84167
#        114722
#        141896
#        162234
#        182666
#        202739
#        228677
#        246633
#        268058
#        288846
#
# Disc length: 4118 seconds
#
# Revision: 1
# Processed by: cddbd v1.5.2PL0 Copyright (c) Steve Scherf et al.
# Submitted via: ExactAudioCopy v1.3
#
DISCID=c210140e
DTITLE=Bridget Kelly Band - Outta the Blues
DYEAR=2016
DGENRE=Blues Rock
TTITLE0=Gonna Stay Here
TTITLE1=Spellbound
TTITLE2=If You See My Baby
TTITLE3=Sweet River Blues
TTITLE4=Baltimore Woes
TTITLE5=Dancin' with the Blues
TTITLE6=Dangerous Man
TTITLE7=Up and Gone (Smokestack Lightning)
TTITLE8=Lonely Night in June
TTITLE9=When the Nighttime Comes
TTITLE10=Hard Times in the City
TTITLE11=Someone's Hoodooin' Me
TTITLE12=Double Crossed Me
TTITLE13=Rocket to the Moon
EXTD=
EXTT0=
EXTT1=
EXTT2=
EXTT3=
EXTT4=
EXTT5=
EXTT6=
EXTT7=
EXTT8=
EXTT9=
EXTT10=
EXTT11=
EXTT12=
EXTT13=
PLAYORDER=
